<svg aria-hidden="true" style="position: absolute; width: 0; height: 0; overflow: hidden;" version="1.1" xmlns="http://www.w3.org/2000/svg" xmlns:xlink="http://www.w3.org/1999/xlink">
<defs>
<symbol id="icon-info-circle" viewBox="0 0 24 28">
<title>info-circle</title>
<path d="M16 21.5v-2.5c0-0.281-0.219-0.5-0.5-0.5h-1.5v-8c0-0.281-0.219-0.5-0.5-0.5h-5c-0.281 0-0.5 0.219-0.5 0.5v2.5c0 0.281 0.219 0.5 0.5 0.5h1.5v5h-1.5c-0.281 0-0.5 0.219-0.5 0.5v2.5c0 0.281 0.219 0.5 0.5 0.5h7c0.281 0 0.5-0.219 0.5-0.5zM14 7.5v-2.5c0-0.281-0.219-0.5-0.5-0.5h-3c-0.281 0-0.5 0.219-0.5 0.5v2.5c0 0.281 0.219 0.5 0.5 0.5h3c0.281 0 0.5-0.219 0.5-0.5zM24 14c0 6.625-5.375 12-12 12s-12-5.375-12-12 5.375-12 12-12 12 5.375 12 12z"></path>
</symbol>
<symbol id="icon-arrow-right" viewBox="0 0 23 28">
<title>arrow-right</title>
<path d="M23 15c0 0.531-0.203 1.047-0.578 1.422l-10.172 10.172c-0.375 0.359-0.891 0.578-1.422 0.578s-1.031-0.219-1.406-0.578l-1.172-1.172c-0.375-0.375-0.594-0.891-0.594-1.422s0.219-1.047 0.594-1.422l4.578-4.578h-11c-1.125 0-1.828-0.938-1.828-2v-2c0-1.062 0.703-2 1.828-2h11l-4.578-4.594c-0.375-0.359-0.594-0.875-0.594-1.406s0.219-1.047 0.594-1.406l1.172-1.172c0.375-0.375 0.875-0.594 1.406-0.594s1.047 0.219 1.422 0.594l10.172 10.172c0.375 0.359 0.578 0.875 0.578 1.406z"></path>
</symbol>
</defs>
</svg>
